<?xml version="1.0" standalone="no"?><!DOCTYPE svg PUBLIC "-//W3C//DTD SVG 1.1//EN" "http://www.w3.org/Graphics/SVG/1.1/DTD/svg11.dtd"><svg t="1547111157957" class="icon" style="" viewBox="0 0 1024 1024" version="1.1" xmlns="http://www.w3.org/2000/svg" p-id="3419" xmlns:xlink="http://www.w3.org/1999/xlink" width="200" height="200"><defs><style type="text/css"></style></defs><path d="M512 1024C229.216 1024 0 794.784 0 512S229.216 0 512 0s512 229.216 512 512-229.216 512-512 512z m256-288h32a288.128 288.128 0 0 0-208.768-276.96 160 160 0 1 0-158.464 0A288.128 288.128 0 0 0 224 736h32a256 256 0 1 1 512 0z m-256-288a128 128 0 1 1 0-256 128 128 0 0 1 0 256z" fill="#5698EF" p-id="3420"></path></svg>