<?xml version="1.0" standalone="no"?><!DOCTYPE svg PUBLIC "-//W3C//DTD SVG 1.1//EN" "http://www.w3.org/Graphics/SVG/1.1/DTD/svg11.dtd"><svg t="1539770228752" class="icon" style="" viewBox="0 0 1024 1024" version="1.1" xmlns="http://www.w3.org/2000/svg" p-id="11371" xmlns:xlink="http://www.w3.org/1999/xlink" width="128" height="128"><defs><style type="text/css"></style></defs><path d="M384.6 275.8C388 300.3 412 317 438.2 313c26.5-4.5 44.9-27.2 41.6-51.8l-21.2-158.9c-3.4-24.4-27.5-41.1-53.6-37.1-26.6 4.5-44.9 27.3-41.5 51.8l21.1 158.8z m-99.4 123.8c16.3-20.3 12.6-47.7-8.8-62.6l-134.9-93.4c-21.5-14.7-50.8-10.4-67.1 9.9-16.2 20.3-13.2 48.5 8.3 63.4l134.9 93.3c21.3 14.9 51.3 9.6 67.6-10.6z m-16.8 346.9l-119.1 151c-5 6.4-2.2 16.1 5.9 21.7l52.3 36.2c8.1 5.7 18.9 5.3 23.9-1l122.4-155.1C409.6 845.1 477 910.8 477 910.8l91.3-501-464.5 285.9s102.5 27.1 164.6 50.8z m405.8-406.4l105.6-131.4c15.9-19.8 11.7-47.5-8.3-61.5-21.3-14.6-50.3-10.5-66.7 9.5L599.2 288.2c-16 19.8-12.2 47.2 9.2 62.1 20.1 14 49.9 9.7 65.8-10.2z m177.3 395.1l-135.8-94.1c-21.6-14.5-50.7-10.2-67 10-16.2 20.2-12.7 48.8 8.2 63.3l135.9 94c20.5 14.3 50.5 8.9 66.7-11.3 16.3-20.2 12.5-47.7-8-61.9z m108-286c-2.9-24.2-26.6-40.5-53.6-37.1l-170 26.4c-25.7 4.3-44.1 27.2-41.6 51.8 4.3 25 27.9 41.4 53.7 37.1L918 501c27-3.4 45.3-26.3 41.5-51.8z" p-id="11372"></path></svg>