<?xml version="1.0" standalone="no"?><!DOCTYPE svg PUBLIC "-//W3C//DTD SVG 1.1//EN" "http://www.w3.org/Graphics/SVG/1.1/DTD/svg11.dtd"><svg t="1539766297195" class="icon" style="" viewBox="0 0 1024 1024" version="1.1" xmlns="http://www.w3.org/2000/svg" p-id="4331" xmlns:xlink="http://www.w3.org/1999/xlink" width="48" height="48"><defs><style type="text/css"></style></defs><path d="M256 274.985109h-56.880584a18.985109 18.985109 0 0 1-18.985109-18.985109v-56.880584a18.985109 18.985109 0 0 1 18.985109-18.985109h56.880584a18.985109 18.985109 0 0 1 18.985109 18.985109v56.880584a18.985109 18.985109 0 0 1-18.985109 18.985109z m189.626861 0H388.671533a18.985109 18.985109 0 0 1-18.98511-18.985109v-56.880584A18.985109 18.985109 0 0 1 388.671533 180.134307h56.880584a18.985109 18.985109 0 0 1 18.985109 18.985109v56.880584a18.985109 18.985109 0 0 1-18.985109 18.985109zM256 464.611971h-56.880584a18.985109 18.985109 0 0 1-18.985109-18.98511V388.671533a18.985109 18.985109 0 0 1 18.985109-18.98511h56.880584A18.985109 18.985109 0 0 1 274.985109 388.671533v56.880584a18.985109 18.985109 0 0 1-18.985109 18.985109z m189.626861 0H388.671533a18.985109 18.985109 0 0 1-18.98511-18.98511V388.671533A18.985109 18.985109 0 0 1 388.671533 369.761168h56.880584A18.985109 18.985109 0 0 1 464.611971 388.671533v56.880584a18.985109 18.985109 0 0 1-18.98511 18.985109zM256 654.238832h-56.880584A18.985109 18.985109 0 0 1 180.134307 635.328467v-56.955328a18.985109 18.985109 0 0 1 18.985109-18.98511h56.880584a18.985109 18.985109 0 0 1 18.985109 18.98511V635.328467a18.985109 18.985109 0 0 1-18.985109 18.98511z" fill="" p-id="4332"></path><path d="M772.708905 1024H346.067153a37.970219 37.970219 0 0 1 0-75.865693 33.635036 33.635036 0 0 0 33.18657-33.18657V488.305985a109.724964 109.724964 0 0 1 109.052262-109.052262h426.641752a37.970219 37.970219 0 1 1 0 75.865693 33.635036 33.635036 0 0 0-32.962336 33.186569v426.641752A109.650219 109.650219 0 0 1 772.708905 1024z m-322.373139-75.865693h322.373139a33.635036 33.635036 0 0 0 33.186569-33.18657V488.305985a127.588905 127.588905 0 0 1 4.78365-33.186569H488.305985a33.635036 33.635036 0 0 0-33.186569 33.186569v426.641752a124.449635 124.449635 0 0 1-4.78365 33.18657z" fill="" p-id="4333"></path><path d="M737.653723 676.961168H524.332847a28.477664 28.477664 0 1 1 0-56.880584h213.320876a27.954453 27.954453 0 0 1 28.477664 28.477664 28.552409 28.552409 0 0 1-28.477664 28.40292z m0 90.067153H524.332847a28.477664 28.477664 0 1 1 0-56.880584h213.320876a27.954453 27.954453 0 0 1 28.477664 28.477664 28.552409 28.552409 0 0 1-28.477664 28.40292z" fill="" p-id="4334"></path><path d="M630.544818 890.282044a27.954453 27.954453 0 0 1-28.477665-28.40292V648.558248a28.477664 28.477664 0 1 1 56.880584 0v213.320876a28.477664 28.477664 0 0 1-28.402919 28.40292z" fill="" p-id="4335"></path><path d="M630.544818 676.961168a27.356496 27.356496 0 0 1-19.956789-8.520876L503.479124 561.331387a28.178686 28.178686 0 0 1 39.838832-39.838832l86.255183 86.255182 86.255182-86.255182a28.178686 28.178686 0 0 1 39.838832 39.838832L650.277372 668.440292a27.281752 27.281752 0 0 1-19.882044 8.520876z" fill="" p-id="4336"></path><path d="M914.947737 455.119416a37.970219 37.970219 0 1 1 37.970219-37.895474 37.970219 37.970219 0 0 1-37.970219 37.895474z" fill="#7F7F7F" p-id="4337"></path><path d="M986.104526 668.440292h-142.014599a38.044964 38.044964 0 0 1-37.970219-37.895474v-142.014599a109.052263 109.052263 0 1 1 218.104526 0v142.014599a37.970219 37.970219 0 0 1-37.895475 37.895474zM881.985401 592.574599h66.373139v-104.642336a33.186569 33.186569 0 0 0-66.373139 0zM417.223942 834.373139H37.895474A37.970219 37.970219 0 0 1 0 796.477664V37.895474A37.970219 37.970219 0 0 1 37.895474 0h568.880584a38.044964 38.044964 0 0 1 37.970219 37.895474v379.328468a38.044964 38.044964 0 0 1-37.970219 37.895474H488.305985a33.635036 33.635036 0 0 0-33.186569 33.186569v308.171679a37.970219 37.970219 0 0 1-37.895474 37.895475z m-341.358249-75.865694h303.38803V488.305985a109.724964 109.724964 0 0 1 109.052262-109.052262h80.574599V75.865693h-493.313869z" fill="" p-id="4338"></path></svg>