<?xml version="1.0" standalone="no"?><!DOCTYPE svg PUBLIC "-//W3C//DTD SVG 1.1//EN" "http://www.w3.org/Graphics/SVG/1.1/DTD/svg11.dtd"><svg t="1539944304259" class="icon" style="" viewBox="0 0 1024 1024" version="1.1" xmlns="http://www.w3.org/2000/svg" p-id="4002" xmlns:xlink="http://www.w3.org/1999/xlink" width="128" height="128"><defs><style type="text/css"></style></defs><path d="M396.8 0H51.2A51.2 51.2 0 0 0 0 51.2v345.6A51.2 51.2 0 0 0 51.2 448h345.6a51.2 51.2 0 0 0 51.2-51.2V51.2A51.2 51.2 0 0 0 396.8 0z m-25.6 371.2H76.8V76.8h294.4v294.4zM972.8 0H627.2A51.2 51.2 0 0 0 576 51.2v345.6a51.2 51.2 0 0 0 51.2 51.2h345.6a51.2 51.2 0 0 0 51.2-51.2V51.2A51.2 51.2 0 0 0 972.8 0z m-25.6 371.2h-294.4V76.8h294.4v294.4zM396.8 576H51.2A51.2 51.2 0 0 0 0 627.2v345.6A51.2 51.2 0 0 0 51.2 1024h345.6a51.2 51.2 0 0 0 51.2-51.2V627.2a51.2 51.2 0 0 0-51.2-51.2z m-25.6 371.2H76.8v-294.4h294.4v294.4zM972.8 576H627.2a51.2 51.2 0 0 0-51.2 51.2v345.6a51.2 51.2 0 0 0 51.2 51.2H768a25.6 25.6 0 0 0 25.6-25.6v-25.6a25.6 25.6 0 0 0-25.6-25.6h-115.2v-294.4h294.4v140.8a25.6 25.6 0 0 0 25.6 25.6h25.6a25.6 25.6 0 0 0 25.6-25.6v-166.4a51.2 51.2 0 0 0-51.2-51.2z" fill="#999999" p-id="4003"></path></svg>