<?xml version="1.0" standalone="no"?><!DOCTYPE svg PUBLIC "-//W3C//DTD SVG 1.1//EN" "http://www.w3.org/Graphics/SVG/1.1/DTD/svg11.dtd"><svg t="1540715743969" class="icon" style="" viewBox="0 0 1024 1024" version="1.1" xmlns="http://www.w3.org/2000/svg" p-id="1926" xmlns:xlink="http://www.w3.org/1999/xlink" width="128" height="128"><defs><style type="text/css"></style></defs><path d="M511.734964 959.461101c-247.28092 0-447.740464-200.459544-447.740464-447.740464 0-247.279896 200.459544-447.741487 447.740464-447.741487 247.279896 0 447.740464 200.461591 447.740464 447.741487C959.476451 759.00258 759.015883 959.461101 511.734964 959.461101zM511.734964 147.933237c-200.915939 0-363.788423 162.870438-363.788423 363.7874 0 200.914916 162.872484 363.789447 363.788423 363.789447 200.916962 0 363.789447-162.874531 363.789447-363.789447C875.52441 310.803675 712.651926 147.933237 511.734964 147.933237zM637.662001 511.720637c-12.384052 0-23.401989-5.465478-31.087019-13.998829l-0.11154 0.103354-52.753481-58.610886 0 254.399037c0 23.184025-18.791995 41.978067-41.974997 41.978067-23.181979 0-41.97602-18.795065-41.97602-41.978067L469.758943 439.214277l-52.750411 58.610886-0.115634-0.103354c-7.679913 8.53335-18.697851 13.998829-31.085996 13.998829-23.180955 0-41.97602-18.789948-41.97602-41.973974 0-10.797927 4.190439-20.541849 10.889001-27.979238l-0.113587-0.100284 125.929084-139.92075 0.110517 0.103354c7.686053-8.53335 18.701944-14.000875 31.088042-14.000875 12.385075 0 23.403013 5.468548 31.085996 14.000875l0.113587-0.103354 125.928061 139.92075-0.113587 0.100284c6.697539 7.437389 10.889001 17.182334 10.889001 27.979238C679.638021 492.930689 660.845003 511.720637 637.662001 511.720637z" p-id="1927" fill="#cdcdcd"></path></svg>