<?xml version="1.0" standalone="no"?><!DOCTYPE svg PUBLIC "-//W3C//DTD SVG 1.1//EN" "http://www.w3.org/Graphics/SVG/1.1/DTD/svg11.dtd"><svg t="1539769858783" class="icon" style="" viewBox="0 0 1024 1024" version="1.1" xmlns="http://www.w3.org/2000/svg" p-id="6985" xmlns:xlink="http://www.w3.org/1999/xlink" width="128" height="128"><defs><style type="text/css"></style></defs><path d="M307.2 577.163636c-89.987879-52.751515-152.048485-152.048485-152.048485-266.860606 0-170.666667 139.636364-310.30303 310.30303-310.30303s310.30303 139.636364 310.303031 310.30303c0 145.842424-99.29697 266.860606-235.830303 300.99394-6.206061 6.206061-18.618182 9.309091-27.927273 9.309091-198.593939 0-356.848485 158.254545-356.848485 356.848484 0 24.824242-21.721212 46.545455-46.545454 46.545455s-46.545455-21.721212-46.545455-46.545455c0-173.769697 99.29697-325.818182 245.139394-400.290909z m238.933333 282.375758l-136.533333 136.533333c-18.618182 18.618182-46.545455 18.618182-65.163636 0-18.618182-18.618182-18.618182-46.545455 0-65.163636l152.048484-152.048485c12.412121-12.412121 34.133333-15.515152 49.648485-9.309091 15.515152-6.206061 37.236364-3.10303 49.648485 9.309091l136.533334 136.533333 136.533333-136.533333c18.618182-18.618182 46.545455-18.618182 65.163636 0 18.618182 18.618182 18.618182 46.545455 0 65.163636l-152.048485 152.048485c-12.412121 12.412121-34.133333 15.515152-49.648484 9.309091-15.515152 6.206061-37.236364 3.10303-49.648485-9.309091l-136.533334-136.533333z m-80.678788-332.024242c121.018182 0 217.212121-96.193939 217.212122-217.212122s-96.193939-217.212121-217.212122-217.212121-217.212121 96.193939-217.212121 217.212121c0 117.915152 96.193939 217.212121 217.212121 217.212122z" p-id="6986"></path></svg>